<svg width="208" height="268" viewBox="0 0 208 268" fill="none" xmlns="http://www.w3.org/2000/svg">
<path d="M32.583 168.061V174.831C32.583 175.571 32.783 176.141 33.183 176.531C33.583 176.921 34.153 177.121 34.883 177.121C35.613 177.121 36.193 176.921 36.593 176.531C36.993 176.141 37.193 175.571 37.193 174.831V168.061H39.493V174.821C39.493 175.751 39.283 176.541 38.863 177.181C38.443 177.821 37.883 178.311 37.183 178.631C36.483 178.951 35.703 179.121 34.843 179.121C33.983 179.121 33.223 178.961 32.533 178.631C31.843 178.311 31.293 177.821 30.893 177.181C30.493 176.541 30.293 175.751 30.293 174.821V168.061H32.573H32.583Z" fill="#1F2A44"/>
<path d="M49.303 171.181C49.963 171.831 50.293 172.751 50.293 173.921V179.021H48.013V174.221C48.013 173.531 47.833 173.001 47.473 172.631C47.113 172.261 46.623 172.071 46.003 172.071C45.383 172.071 44.873 172.261 44.513 172.631C44.153 173.001 43.963 173.531 43.963 174.221V179.021H41.683V170.331H43.963V171.411C44.263 171.031 44.653 170.741 45.133 170.521C45.603 170.311 46.123 170.201 46.693 170.201C47.773 170.201 48.643 170.531 49.303 171.181Z" fill="#1F2A44"/>
<path d="M56.553 170.631C57.063 169.781 57.753 169.111 58.623 168.641C59.493 168.171 60.483 167.931 61.563 167.931C62.833 167.931 63.953 168.241 64.903 168.871C65.863 169.501 66.523 170.371 66.913 171.471H64.293C64.033 170.951 63.663 170.561 63.193 170.291C62.723 170.031 62.173 169.901 61.553 169.901C60.893 169.901 60.303 170.051 59.783 170.351C59.263 170.651 58.863 171.071 58.573 171.611C58.283 172.151 58.143 172.791 58.143 173.521C58.143 174.251 58.283 174.881 58.573 175.421C58.863 175.961 59.263 176.391 59.783 176.691C60.303 176.991 60.893 177.141 61.553 177.141C62.173 177.141 62.723 177.011 63.193 176.741C63.663 176.471 64.033 176.081 64.293 175.561H66.913C66.533 176.681 65.863 177.551 64.913 178.171C63.963 178.791 62.843 179.101 61.563 179.101C60.473 179.101 59.493 178.861 58.623 178.391C57.753 177.921 57.053 177.251 56.553 176.411C56.043 175.561 55.793 174.601 55.793 173.531C55.793 172.461 56.043 171.491 56.553 170.641V170.631Z" fill="#1F2A44"/>
<path d="M70.533 178.591C69.843 178.221 69.293 177.691 68.893 177.011C68.493 176.331 68.293 175.551 68.293 174.661C68.293 173.771 68.493 172.991 68.903 172.311C69.313 171.631 69.873 171.111 70.573 170.731C71.283 170.361 72.073 170.171 72.933 170.171C73.793 170.171 74.593 170.361 75.293 170.731C75.993 171.101 76.553 171.631 76.963 172.311C77.373 172.991 77.573 173.771 77.573 174.661C77.573 175.551 77.363 176.331 76.943 177.011C76.523 177.691 75.963 178.211 75.243 178.591C74.533 178.961 73.733 179.151 72.853 179.151C71.973 179.151 71.203 178.961 70.503 178.591H70.533ZM74.043 176.951C74.403 176.761 74.693 176.471 74.913 176.081C75.133 175.691 75.243 175.221 75.243 174.671C75.243 173.841 75.013 173.211 74.563 172.761C74.113 172.321 73.563 172.091 72.903 172.091C72.243 172.091 71.703 172.311 71.263 172.761C70.823 173.201 70.603 173.841 70.603 174.671C70.603 175.501 70.823 176.131 71.243 176.581C71.673 177.021 72.213 177.251 72.863 177.251C73.273 177.251 73.663 177.151 74.033 176.961L74.043 176.951Z" fill="#1F2A44"/>
<path d="M87.793 170.321V179.011H85.493V177.911C85.203 178.291 84.813 178.581 84.343 178.801C83.873 179.011 83.353 179.121 82.803 179.121C82.093 179.121 81.473 178.981 80.933 178.691C80.393 178.401 79.963 177.981 79.653 177.421C79.343 176.861 79.193 176.191 79.193 175.421V170.321H81.473V175.101C81.473 175.791 81.653 176.321 82.013 176.691C82.373 177.061 82.863 177.251 83.483 177.251C84.103 177.251 84.603 177.061 84.963 176.691C85.323 176.321 85.503 175.791 85.503 175.101V170.321H87.803H87.793Z" fill="#1F2A44"/>
<path d="M93.543 170.581C94.063 170.311 94.653 170.181 95.313 170.181C96.083 170.181 96.783 170.361 97.413 170.731C98.033 171.101 98.533 171.621 98.893 172.291C99.253 172.961 99.443 173.751 99.443 174.631C99.443 175.511 99.263 176.311 98.893 176.991C98.533 177.671 98.033 178.201 97.413 178.581C96.783 178.961 96.093 179.141 95.313 179.141C94.653 179.141 94.063 179.011 93.563 178.751C93.063 178.491 92.643 178.161 92.333 177.761V183.141H90.053V170.311H92.333V171.561C92.623 171.161 93.033 170.831 93.543 170.561V170.581ZM96.773 173.281C96.553 172.901 96.253 172.611 95.893 172.411C95.533 172.211 95.133 172.111 94.713 172.111C94.293 172.111 93.913 172.211 93.543 172.421C93.183 172.621 92.883 172.921 92.663 173.311C92.443 173.701 92.333 174.151 92.333 174.671C92.333 175.191 92.443 175.651 92.663 176.031C92.883 176.411 93.183 176.711 93.543 176.921C93.903 177.121 94.293 177.231 94.713 177.231C95.133 177.231 95.533 177.131 95.893 176.921C96.253 176.711 96.553 176.411 96.773 176.031C96.993 175.641 97.103 175.181 97.103 174.651C97.103 174.121 96.993 173.681 96.773 173.291V173.281Z" fill="#1F2A44"/>
<path d="M104.943 172.301C105.303 171.621 105.803 171.101 106.433 170.731C107.063 170.361 107.763 170.181 108.533 170.181C109.123 170.181 109.683 170.301 110.213 170.551C110.743 170.801 111.173 171.121 111.483 171.531V167.411H113.803V179.011H111.483V177.721C111.203 178.151 110.803 178.491 110.293 178.751C109.783 179.011 109.193 179.141 108.513 179.141C107.753 179.141 107.053 178.951 106.423 178.581C105.793 178.211 105.293 177.671 104.933 176.991C104.573 176.311 104.383 175.521 104.383 174.631C104.383 173.741 104.563 172.971 104.933 172.291L104.943 172.301ZM111.173 173.291C110.953 172.911 110.663 172.621 110.293 172.411C109.923 172.211 109.523 172.101 109.103 172.101C108.683 172.101 108.283 172.201 107.933 172.401C107.573 172.601 107.283 172.891 107.063 173.271C106.843 173.651 106.733 174.101 106.733 174.631C106.733 175.161 106.843 175.611 107.063 176.001C107.283 176.391 107.583 176.691 107.943 176.901C108.303 177.111 108.693 177.211 109.113 177.211C109.533 177.211 109.933 177.111 110.303 176.901C110.673 176.691 110.963 176.401 111.183 176.021C111.403 175.641 111.513 175.181 111.513 174.651C111.513 174.121 111.403 173.661 111.183 173.281L111.173 173.291Z" fill="#1F2A44"/>
<path d="M124.363 175.321H117.763C117.813 175.951 118.043 176.441 118.453 176.791C118.853 177.151 119.353 177.321 119.933 177.321C120.783 177.321 121.383 176.971 121.743 176.271H124.203C123.943 177.111 123.443 177.791 122.703 178.331C121.963 178.871 121.053 179.141 119.983 179.141C119.113 179.141 118.333 178.951 117.643 178.581C116.953 178.211 116.413 177.681 116.033 177.001C115.653 176.321 115.453 175.541 115.453 174.651C115.453 173.761 115.643 172.961 116.023 172.281C116.403 171.601 116.933 171.081 117.623 170.711C118.303 170.341 119.093 170.161 119.983 170.161C120.873 170.161 121.613 170.341 122.293 170.691C122.973 171.051 123.503 171.551 123.873 172.201C124.253 172.851 124.433 173.601 124.433 174.451C124.433 174.761 124.413 175.051 124.373 175.301L124.363 175.321ZM122.063 173.851C122.053 173.291 121.843 172.831 121.423 172.491C121.013 172.151 120.503 171.981 119.903 171.981C119.333 171.981 118.863 172.141 118.473 172.471C118.083 172.801 117.853 173.261 117.763 173.841H122.053L122.063 173.851Z" fill="#1F2A44"/>
<path d="M136.993 168.061V169.831H132.253V172.641H135.893V174.381H132.253V179.011H129.973V168.071H137.003L136.993 168.061Z" fill="#1F2A44"/>
<path d="M142.043 170.591C142.513 170.331 143.053 170.201 143.663 170.201V172.501H143.063C142.343 172.501 141.803 172.661 141.443 172.991C141.083 173.311 140.893 173.881 140.893 174.681V179.011H138.613V170.321H140.893V171.671C141.183 171.211 141.573 170.851 142.043 170.591Z" fill="#1F2A44"/>
<path d="M145.153 172.301C145.513 171.621 146.013 171.101 146.633 170.731C147.263 170.361 147.953 170.181 148.733 170.181C149.403 170.181 149.993 170.311 150.503 170.571C151.013 170.831 151.413 171.161 151.713 171.561V170.321H154.013V179.011H151.713V177.741C151.423 178.151 151.013 178.481 150.503 178.751C149.993 179.021 149.393 179.151 148.723 179.151C147.963 179.151 147.273 178.961 146.643 178.591C146.013 178.221 145.523 177.681 145.163 177.001C144.803 176.321 144.613 175.531 144.613 174.641C144.613 173.751 144.793 172.981 145.163 172.301H145.153ZM151.393 173.291C151.173 172.911 150.883 172.621 150.513 172.411C150.143 172.211 149.743 172.101 149.323 172.101C148.903 172.101 148.503 172.201 148.153 172.401C147.793 172.601 147.503 172.891 147.283 173.271C147.063 173.651 146.953 174.101 146.953 174.631C146.953 175.161 147.063 175.611 147.283 176.001C147.503 176.391 147.803 176.691 148.163 176.901C148.523 177.111 148.913 177.211 149.333 177.211C149.753 177.211 150.153 177.111 150.523 176.901C150.893 176.691 151.183 176.401 151.403 176.021C151.623 175.641 151.733 175.181 151.733 174.651C151.733 174.121 151.623 173.661 151.403 173.281L151.393 173.291Z" fill="#1F2A44"/>
<path d="M157.503 168.391L155.073 169.711V168.111L157.503 166.841L159.913 168.111V169.711L157.503 168.391ZM158.633 170.321V179.011H156.353V170.321H158.633Z" fill="#1F2A44"/>
<path d="M160.963 172.301C161.343 171.631 161.873 171.101 162.543 170.731C163.213 170.361 163.993 170.171 164.863 170.171C165.983 170.171 166.913 170.441 167.643 170.981C168.373 171.521 168.873 172.271 169.123 173.251H166.663C166.533 172.871 166.313 172.581 166.003 172.361C165.693 172.151 165.313 172.041 164.853 172.041C164.203 172.041 163.683 172.271 163.303 172.721C162.923 173.171 162.733 173.821 162.733 174.661C162.733 175.501 162.923 176.131 163.303 176.581C163.683 177.031 164.203 177.261 164.853 177.261C165.773 177.261 166.383 176.861 166.663 176.071H169.123C168.873 177.011 168.383 177.761 167.643 178.311C166.903 178.861 165.983 179.141 164.873 179.141C164.003 179.141 163.233 178.951 162.553 178.581C161.873 178.211 161.353 177.691 160.973 177.011C160.593 176.331 160.403 175.551 160.403 174.651C160.403 173.751 160.593 172.961 160.973 172.291L160.963 172.301Z" fill="#1F2A44"/>
<path d="M177.703 170.631C178.233 170.921 178.653 171.341 178.953 171.901C179.253 172.461 179.403 173.131 179.403 173.911V179.011H177.123V174.211C177.123 173.521 176.943 172.991 176.583 172.621C176.223 172.251 175.733 172.061 175.113 172.061C174.493 172.061 173.983 172.251 173.623 172.621C173.263 172.991 173.073 173.521 173.073 174.211V179.011H170.793V167.411H173.073V171.411C173.363 171.031 173.753 170.741 174.243 170.521C174.733 170.311 175.273 170.201 175.873 170.201C176.553 170.201 177.163 170.341 177.703 170.631Z" fill="#1F2A44"/>
<path d="M189.903 175.321H183.303C183.353 175.951 183.583 176.441 183.993 176.791C184.393 177.151 184.893 177.321 185.473 177.321C186.323 177.321 186.923 176.971 187.283 176.271H189.743C189.483 177.111 188.983 177.791 188.243 178.331C187.503 178.871 186.593 179.141 185.523 179.141C184.653 179.141 183.873 178.951 183.183 178.581C182.493 178.211 181.953 177.681 181.573 177.001C181.193 176.321 180.993 175.541 180.993 174.651C180.993 173.761 181.183 172.961 181.563 172.281C181.943 171.601 182.473 171.081 183.163 170.711C183.843 170.341 184.633 170.161 185.523 170.161C186.413 170.161 187.153 170.341 187.833 170.691C188.513 171.051 189.043 171.551 189.413 172.201C189.793 172.851 189.973 173.601 189.973 174.451C189.973 174.761 189.953 175.051 189.913 175.301L189.903 175.321ZM187.603 173.851C187.593 173.291 187.383 172.831 186.963 172.491C186.553 172.151 186.043 171.981 185.443 171.981C184.873 171.981 184.403 172.141 184.013 172.471C183.623 172.801 183.393 173.261 183.303 173.841H187.593L187.603 173.851Z" fill="#1F2A44"/>
<path d="M200.153 170.321V179.011H197.853V177.911C197.563 178.291 197.173 178.581 196.703 178.801C196.233 179.011 195.713 179.121 195.163 179.121C194.453 179.121 193.833 178.981 193.293 178.691C192.753 178.401 192.323 177.981 192.013 177.421C191.703 176.861 191.553 176.191 191.553 175.421V170.321H193.833V175.101C193.833 175.791 194.013 176.321 194.373 176.691C194.733 177.061 195.223 177.251 195.843 177.251C196.463 177.251 196.963 177.061 197.323 176.691C197.683 176.321 197.863 175.791 197.863 175.101V170.321H200.163H200.153Z" fill="#1F2A44"/>
<path d="M205.833 170.591C206.303 170.331 206.843 170.201 207.453 170.201V172.501H206.853C206.133 172.501 205.593 172.661 205.233 172.991C204.873 173.311 204.683 173.881 204.683 174.681V179.011H202.403V170.321H204.683V171.671C204.973 171.211 205.363 170.851 205.833 170.591Z" fill="#1F2A44"/>
<path d="M114.853 2.94118C61.243 15.7712 12.573 59.2812 6.22301 115.781C-1.01699 172.281 37.473 224.741 88.523 245.731C122.253 260.291 160.773 263.031 196.333 254.111C201.923 252.821 204.103 261.041 198.413 262.601C160.993 271.481 120.733 268.121 85.593 252.421C32.423 229.771 -7.23699 174.191 1.11301 115.141C8.34301 57.0312 58.783 12.5012 114.133 0.031183C116.053 -0.318817 116.763 2.38118 114.843 2.94118H114.853Z" fill="#3BAACD"/>
<path d="M136.731 107.2L147.143 110.183L136.731 113.152L134.134 123.956L131.526 113.152L121.114 110.183L131.526 107.199L134.134 96.3965L136.731 107.2ZM132.361 108.002L124.752 110.18L132.361 112.351L134.131 119.685L135.895 112.351L143.502 110.18L135.895 108.002L134.131 100.667L132.361 108.002Z" fill="#3BAACD"/>
<path d="M153.971 91.3101L164.395 94.2798L153.971 97.2612L151.374 108.066L148.766 97.2612L138.354 94.2798L148.766 91.3091L151.374 80.5063L153.971 91.3101ZM149.601 92.1118L141.992 94.2817L149.601 96.4604L151.371 103.796L153.135 96.4604L160.75 94.2817L153.135 92.1118L151.371 84.7749L149.601 92.1118Z" fill="#3BAACD"/>
<path d="M162.071 114.05L172.498 117.021L162.071 119.99L159.474 130.808L156.865 119.991L146.45 117.021L156.866 114.049L159.474 103.246L162.071 114.05ZM157.701 114.852L150.095 117.021L157.701 119.191L159.471 126.532L161.235 119.191L168.847 117.021L161.235 114.852L159.471 107.515L157.701 114.852Z" fill="#3BAACD"/>
<path d="M100.397 27.098C101.083 26.2329 102.341 26.0882 103.206 26.7748L144.666 59.6742C145.531 60.3608 145.676 61.6195 144.989 62.4847C144.303 63.3496 143.045 63.4944 142.18 62.808L100.72 29.9076C99.8547 29.221 99.71 27.9632 100.397 27.098Z" fill="#3BAACD"/>
<path d="M100.422 27.0658C101.126 26.2148 102.387 26.0961 103.238 26.8002C104.089 27.5043 104.208 28.7655 103.504 29.6166L6.6541 146.676C5.94998 147.527 4.68875 147.646 3.8377 146.942C2.98709 146.238 2.86815 144.977 3.57207 144.126L100.422 27.0658Z" fill="#3BAACD"/>
<path d="M162.867 74.318C163.553 73.4528 164.811 73.3081 165.676 73.9948L207.117 106.884C207.982 107.571 208.127 108.83 207.44 109.695C206.753 110.56 205.494 110.705 204.629 110.018L163.19 77.1276C162.325 76.4409 162.18 75.1832 162.867 74.318Z" fill="#3BAACD"/>
<path d="M164.16 28.3312C165.265 28.3297 166.162 29.2238 166.163 30.3282C166.165 31.4327 165.271 32.3294 164.166 32.3312L143.426 32.3615C142.322 32.363 141.425 31.4688 141.423 30.3644C141.422 29.2598 142.316 28.3631 143.42 28.3615L164.16 28.3312Z" fill="#3BAACD"/>
<path d="M141.423 61.2411V30.3612C141.423 29.2566 142.319 28.3612 143.423 28.3612C144.528 28.3612 145.423 29.2566 145.423 30.3612V61.2411C145.423 62.3457 144.528 63.2411 143.423 63.2411C142.319 63.2411 141.423 62.3457 141.423 61.2411Z" fill="#3BAACD"/>
<path d="M164.151 28.3312C165.256 28.3247 166.157 29.215 166.163 30.3195L166.433 75.549C166.439 76.6534 165.55 77.5539 164.445 77.5607C163.341 77.5673 162.44 76.6778 162.434 75.5734L162.163 30.3429C162.157 29.2385 163.047 28.3378 164.151 28.3312Z" fill="#3BAACD"/>
</svg>
