<svg width="48" height="48" viewBox="0 0 48 48" fill="none" xmlns="http://www.w3.org/2000/svg">
<path d="M24 12.75C24 12.5511 23.921 12.3603 23.7803 12.2197C23.6397 12.079 23.4489 12 23.25 12C23.0511 12 22.8603 12.079 22.7197 12.2197C22.579 12.3603 22.5 12.5511 22.5 12.75V24.75C22.5 24.9489 22.579 25.1397 22.7197 25.2803C22.8603 25.421 23.0511 25.5 23.25 25.5H30.75C30.9489 25.5 31.1397 25.421 31.2803 25.2803C31.421 25.1397 31.5 24.9489 31.5 24.75C31.5 24.5511 31.421 24.3603 31.2803 24.2197C31.1397 24.079 30.9489 24 30.75 24H24V12.75ZM45 24C45 35.598 35.598 45 24 45C12.402 45 3 35.598 3 24C3 12.402 12.402 3 24 3C35.598 3 45 12.402 45 24ZM43.5 24C43.5 13.23 34.77 4.5 24 4.5C13.23 4.5 4.5 13.23 4.5 24C4.5 34.77 13.23 43.5 24 43.5C34.77 43.5 43.5 34.77 43.5 24Z" fill="#3DB7D6"/>
</svg>
