<svg width="48" height="48" viewBox="0 0 48 48" fill="none" xmlns="http://www.w3.org/2000/svg">
<g clip-path="url(#clip0_21_8)">
<path fill-rule="evenodd" clip-rule="evenodd" d="M11.644 21.0198C11.764 20.6598 11.824 20.3198 11.964 19.9798C12.1427 19.5398 12.356 19.1198 12.604 18.7198C12.6615 18.6639 12.7071 18.5971 12.7383 18.5232C12.7695 18.4494 12.7856 18.37 12.7856 18.2899C12.7856 18.2097 12.7695 18.1303 12.7383 18.0565C12.7071 17.9826 12.6615 17.9158 12.604 17.8599C12.4885 17.7486 12.3344 17.6865 12.174 17.6865C12.0136 17.6865 11.8595 17.7486 11.744 17.8599C10.944 18.4279 10.264 19.1478 9.744 19.9798C9.53368 20.3558 9.35956 20.7509 9.224 21.1598C9.104 21.5652 9.024 21.9785 8.984 22.3998C8.88773 23.3441 8.88773 24.2956 8.984 25.2398C9.01183 25.4027 9.09635 25.5505 9.22263 25.657C9.34891 25.7635 9.50879 25.822 9.674 25.822C9.83921 25.822 9.99909 25.7635 10.1254 25.657C10.2516 25.5505 10.3362 25.4027 10.364 25.2398C10.5752 24.1328 10.8899 23.048 11.304 21.9998C11.424 21.6798 11.524 21.3398 11.644 21.0198ZM9.164 17.0798C8.94859 16.5463 8.66633 16.0423 8.324 15.5798C7.92945 15.1988 7.51557 14.8384 7.084 14.4998C6.97536 14.4002 6.83474 14.3424 6.68739 14.3371C6.54003 14.3317 6.39559 14.379 6.27998 14.4706C6.16437 14.5621 6.08517 14.6918 6.05658 14.8365C6.02799 14.9811 6.0519 15.1312 6.124 15.2598C6.35733 15.7638 6.624 16.2505 6.924 16.7198C7.244 17.1398 7.664 17.4398 8.004 17.8198C8.10299 17.9718 8.25794 18.0785 8.43517 18.1167C8.61241 18.155 8.79759 18.1218 8.95045 18.0243C9.10331 17.9268 9.2115 17.7728 9.25149 17.596C9.29148 17.4191 9.26004 17.2336 9.164 17.0798ZM15.944 24.1798C15.5074 23.6399 15.04 23.1258 14.544 22.6398C14.4981 22.571 14.4384 22.5125 14.3687 22.4678C14.299 22.4232 14.2209 22.3934 14.1392 22.3804C14.0574 22.3674 13.9739 22.3715 13.8938 22.3923C13.8138 22.4132 13.7389 22.4504 13.6739 22.5016C13.6088 22.5527 13.5551 22.6168 13.516 22.6898C13.477 22.7627 13.4534 22.8429 13.4469 22.9254C13.4403 23.0079 13.4509 23.0909 13.4779 23.1691C13.505 23.2473 13.5479 23.319 13.604 23.3798C14.004 24.0398 14.304 24.6199 14.644 25.1199C14.8973 25.4999 15.1707 25.8665 15.464 26.2198C16.184 27.1398 16.964 28.0065 17.804 28.8198C17.9287 28.9525 18.1009 29.0301 18.2828 29.0357C18.4647 29.0414 18.6414 28.9745 18.774 28.8498C18.9066 28.7252 18.9843 28.553 18.9899 28.3711C18.9955 28.1892 18.9287 28.0125 18.804 27.8798C17.7886 26.6958 16.834 25.4609 15.944 24.1798Z" fill="#3DB7D6"/>
<path fill-rule="evenodd" clip-rule="evenodd" d="M25.302 26.3579C25.1608 25.1843 24.8085 24.046 24.262 22.9979C23.1998 20.9615 21.5663 19.2794 19.562 18.1579C19.4901 18.124 19.4115 18.1065 19.332 18.1065C19.2525 18.1065 19.1739 18.124 19.102 18.1579C19.1233 17.7712 19.1233 17.3846 19.102 16.9979C19.102 16.4779 18.942 15.9579 18.862 15.4579L19.502 15.3379C22.0495 14.816 24.2983 13.3335 25.782 11.1979C26.4507 10.122 26.8296 8.89139 26.8818 7.6257C26.934 6.36002 26.6577 5.10237 26.0799 3.97508C25.502 2.84779 24.6423 1.88923 23.5842 1.19265C22.5262 0.496061 21.3059 0.0851563 20.042 -9.95988e-05C18.6194 -0.0228072 17.2126 0.29974 15.942 0.9399C14.4948 1.63869 13.2311 2.66644 12.2521 3.94096C11.2731 5.21549 10.606 6.70141 10.304 8.2799C10.1127 9.42631 10.2584 10.6036 10.7235 11.6687C11.1886 12.7339 11.9531 13.641 12.924 14.2799C13.696 14.8339 14.584 15.2039 15.524 15.3599C16.188 15.4436 16.86 15.4436 17.524 15.3599C17.524 15.8399 17.404 16.2999 17.364 16.7799C17.324 17.2599 17.364 17.5799 17.364 17.9799C17.364 19.4999 17.564 21.0199 17.704 22.5199C17.7318 22.6828 17.8164 22.8305 17.9426 22.937C18.0689 23.0436 18.2288 23.102 18.394 23.102C18.5592 23.102 18.7191 23.0436 18.8454 22.937C18.9716 22.8305 19.0562 22.6828 19.084 22.5199C19.084 21.4199 19.084 20.3199 19.184 19.2199C20.5841 20.5353 21.6355 22.1778 22.244 23.9999C22.61 24.8699 22.864 25.7839 23.004 26.7179C23.194 27.5939 23.194 28.5019 23.004 29.3779C22.854 30.0479 22.584 30.6859 22.204 31.2579C21.7864 31.8563 21.296 32.4005 20.744 32.8779C20.6744 32.9344 20.6166 33.004 20.5739 33.0828C20.5312 33.1616 20.5045 33.248 20.4952 33.3372C20.4859 33.4263 20.4943 33.5164 20.5198 33.6023C20.5453 33.6883 20.5875 33.7683 20.644 33.8379C20.7005 33.9075 20.7701 33.9653 20.8489 34.008C20.9277 34.0507 21.0141 34.0774 21.1033 34.0867C21.1924 34.096 21.2825 34.0876 21.3684 34.0621C21.4544 34.0366 21.5344 33.9944 21.604 33.9379C22.3347 33.4686 23.0013 32.9219 23.604 32.2979C24.2939 31.4941 24.8128 30.5582 25.1292 29.5473C25.4455 28.5363 25.5526 27.4716 25.444 26.4179L25.302 26.3579ZM16.422 13.2179C15.6475 13.1596 14.9023 12.8974 14.262 12.4579C13.4533 11.9136 12.8569 11.1073 12.5731 10.1748C12.2894 9.24222 12.3356 8.24037 12.704 7.3379C13.358 5.24158 14.7891 3.47484 16.704 2.3999C17.6872 1.80636 18.7981 1.45663 19.944 1.3799C20.8986 1.47785 21.8122 1.81858 22.5977 2.36963C23.3833 2.92069 24.0147 3.66371 24.4318 4.52791C24.8488 5.39212 25.0377 6.34872 24.9803 7.30658C24.9229 8.26444 24.6212 9.19166 24.104 9.9999C22.845 11.6193 21.0122 12.6933 18.984 12.9999C18.1465 13.201 17.2835 13.2752 16.424 13.2199M15.424 31.4779C14.4223 32.828 13.5832 34.2914 12.924 35.8379C12.5175 36.8716 12.1899 37.9347 11.944 39.0179C11.7396 39.8333 11.5926 40.662 11.504 41.4979C11.2739 43.4621 11.3277 45.4491 11.664 47.3979C11.6793 47.5094 11.7213 47.6155 11.7863 47.7073C11.8513 47.7992 11.9375 47.8739 12.0376 47.9254C12.1377 47.9768 12.2487 48.0033 12.3612 48.0027C12.4738 48.0021 12.5845 47.9744 12.684 47.9219C12.8046 47.8572 12.9021 47.7566 12.963 47.6341C13.0239 47.5115 13.0452 47.3731 13.024 47.2379C12.984 45.4179 13.158 43.5979 13.544 41.8179C13.704 41.0579 13.864 40.2979 14.044 39.5379C14.224 38.7779 14.584 37.5379 14.884 36.5179C15.316 35.0019 15.8627 33.5286 16.524 32.0979C16.5877 31.9638 16.5994 31.8108 16.5568 31.6686C16.5143 31.5264 16.4205 31.405 16.2936 31.3279C16.1668 31.2508 16.0158 31.2234 15.87 31.2511C15.7241 31.2788 15.5937 31.3596 15.504 31.4779H15.424ZM41.402 38.4379C41.3164 38.4189 41.2276 38.4189 41.142 38.4379L41.282 38.2579C41.3366 38.186 41.3764 38.1039 41.3989 38.0164C41.4215 37.929 41.4264 37.8379 41.4133 37.7485C41.4003 37.6592 41.3696 37.5733 41.323 37.4959C41.2764 37.4185 41.2149 37.3512 41.142 37.2979C40.9949 37.1927 40.8128 37.1485 40.6338 37.1746C40.4549 37.2007 40.2929 37.2951 40.182 37.4379C39.8431 37.8613 39.3707 38.1573 38.842 38.2779C38.6086 38.3438 38.3642 38.3618 38.1236 38.3309C37.883 38.2999 37.6512 38.2207 37.442 38.0979C37.146 37.8925 36.8713 37.658 36.622 37.3979C36.182 36.9179 35.782 36.3979 35.342 35.9379C34.7238 35.3113 33.9851 34.8164 33.1705 34.483C32.3558 34.1496 31.4821 33.9846 30.602 33.9979C29.2257 34.0092 27.899 34.5129 26.862 35.4179L26.562 35.1379C26.062 34.6779 25.582 34.1779 25.242 33.8179C25.1878 33.761 25.1227 33.7157 25.0505 33.6848C24.9783 33.6539 24.9005 33.6379 24.822 33.6379C24.7435 33.6379 24.6657 33.6539 24.5935 33.6848C24.5213 33.7157 24.4562 33.761 24.402 33.8179C24.3445 33.8738 24.2989 33.9407 24.2677 34.0145C24.2365 34.0884 24.2205 34.1677 24.2205 34.2479C24.2205 34.3281 24.2365 34.4074 24.2677 34.4813C24.2989 34.5551 24.3445 34.622 24.402 34.6779C24.722 35.0779 25.222 35.6379 25.722 36.1579L26.042 36.4779C25.4855 37.3951 25.1506 38.4295 25.0638 39.4988C24.977 40.5681 25.1407 41.6429 25.542 42.6379C25.9 43.6243 26.4846 44.5129 27.2489 45.232C28.0131 45.9511 28.9356 46.4806 29.942 46.7779C31.2474 47.0974 32.6039 47.1505 33.9303 46.934C35.2567 46.7176 36.5259 46.2359 37.662 45.5179C38.7765 44.8114 39.7322 43.8814 40.4689 42.7867C41.2056 41.692 41.7072 40.4564 41.942 39.1579C41.9593 39.0746 41.9587 38.9885 41.9401 38.9054C41.9216 38.8223 41.8856 38.7441 41.8345 38.676C41.7834 38.6079 41.7185 38.5515 41.6439 38.5104C41.5693 38.4694 41.4869 38.4446 41.402 38.4379ZM36.782 43.9979C35.8318 44.5123 34.7873 44.8289 33.7114 44.9286C32.6355 45.0283 31.5505 44.909 30.522 44.5779C29.8434 44.3588 29.2266 43.9817 28.7224 43.4775C28.2182 42.9733 27.8411 42.3565 27.622 41.6779C27.3503 41.0388 27.2288 40.3458 27.267 39.6523C27.3051 38.9589 27.5018 38.2834 27.842 37.6779C28.1394 37.1847 28.5546 36.7731 29.0502 36.4799C29.5459 36.1867 30.1066 36.0211 30.682 35.9979C31.29 35.9515 31.9011 36.0285 32.4785 36.2244C33.056 36.4203 33.5878 36.7311 34.042 37.1379C34.582 37.6379 35.082 38.2379 35.662 38.7379C35.9433 38.9912 36.25 39.2112 36.582 39.3979C37.342 39.7839 38.222 39.8699 39.042 39.6379C38.7057 39.9059 38.3439 40.1403 37.962 40.3379C37.618 40.5046 37.2647 40.6512 36.902 40.7779C36.5487 40.8966 36.1887 40.9966 35.822 41.0779C35.4143 41.2104 34.9837 41.2575 34.557 41.2162C34.1303 41.1749 33.7167 41.0461 33.342 40.8379C33.2842 40.7827 33.2161 40.7395 33.1416 40.7107C33.0672 40.6818 32.9877 40.6679 32.9079 40.6698C32.828 40.6716 32.7493 40.6892 32.6762 40.7215C32.6032 40.7538 32.5372 40.8001 32.482 40.8579C32.4268 40.9157 32.3836 40.9838 32.3548 41.0583C32.3259 41.1327 32.312 41.2122 32.3139 41.292C32.3157 41.3719 32.3333 41.4506 32.3656 41.5237C32.3979 41.5968 32.4442 41.6627 32.502 41.7179C32.9342 42.2304 33.4778 42.6374 34.0914 42.9078C34.7049 43.1782 35.3721 43.3048 36.042 43.2779C36.6009 43.2482 37.1529 43.1405 37.682 42.9579C38.0989 42.7831 38.4948 42.5617 38.862 42.2979C38.2722 42.9806 37.5684 43.5558 36.782 43.9979ZM22.202 39.5179C21.8954 38.4479 21.4869 37.4098 20.982 36.4179C20.9571 36.343 20.9177 36.2737 20.8661 36.214C20.8144 36.1544 20.7515 36.1055 20.6809 36.0702C20.6103 36.0349 20.5334 36.0139 20.4546 36.0083C20.3759 36.0028 20.2968 36.0128 20.222 36.0379C20.0692 36.0924 19.9439 36.2045 19.8728 36.3504C19.8018 36.4962 19.7907 36.664 19.842 36.8179C20.082 37.8579 20.162 38.8179 20.302 39.8979L20.602 41.8979L20.842 43.8979C20.962 44.9379 21.102 45.8979 21.162 47.0379C21.1619 47.2201 21.2329 47.3952 21.3599 47.5259C21.4869 47.6567 21.6598 47.7327 21.842 47.7379C22.0242 47.738 22.1993 47.667 22.33 47.54C22.4608 47.413 22.5368 47.2401 22.542 47.0579C22.6753 45.9672 22.7487 44.8739 22.762 43.7779C22.7551 43.0492 22.7083 42.3215 22.622 41.5979C22.5282 40.896 22.3879 40.2012 22.202 39.5179Z" fill="#3DB7D6"/>
</g>
<defs>
<clipPath id="clip0_21_8">
<rect width="48" height="48" fill="white"/>
</clipPath>
</defs>
</svg>
