<svg width="48" height="48" viewBox="0 0 48 48" fill="none" xmlns="http://www.w3.org/2000/svg">
<path d="M36.7875 24.9019L26.7825 21.2175L23.0982 11.2125C22.9397 10.7837 22.6536 10.4138 22.2785 10.1525C21.9034 9.89124 21.4572 9.75118 21 9.75118C20.5429 9.75118 20.0967 9.89124 19.7216 10.1525C19.3465 10.4138 19.0604 10.7837 18.9019 11.2125L15.2175 21.2175L5.21254 24.9019C4.78376 25.0604 4.41382 25.3464 4.15255 25.7216C3.89128 26.0967 3.75122 26.5429 3.75122 27C3.75122 27.4571 3.89128 27.9033 4.15255 28.2784C4.41382 28.6536 4.78376 28.9396 5.21254 29.0981L15.2175 32.7825L18.9019 42.7875C19.0604 43.2163 19.3465 43.5862 19.7216 43.8475C20.0967 44.1088 20.5429 44.2488 21 44.2488C21.4572 44.2488 21.9034 44.1088 22.2785 43.8475C22.6536 43.5862 22.9397 43.2163 23.0982 42.7875L26.7825 32.7825L36.7875 29.0981C37.2163 28.9396 37.5863 28.6536 37.8475 28.2784C38.1088 27.9033 38.2489 27.4571 38.2489 27C38.2489 26.5429 38.1088 26.0967 37.8475 25.7216C37.5863 25.3464 37.2163 25.0604 36.7875 24.9019ZM36.2682 27.69L25.9407 31.5C25.8389 31.5375 25.7464 31.5967 25.6697 31.6734C25.593 31.7501 25.5338 31.8426 25.4963 31.9444L21.69 42.2719C21.6382 42.4132 21.5442 42.5351 21.4208 42.6213C21.2974 42.7074 21.1505 42.7536 21 42.7536C20.8495 42.7536 20.7027 42.7074 20.5793 42.6213C20.4559 42.5351 20.3619 42.4132 20.31 42.2719L16.5 31.9406C16.4625 31.8399 16.4037 31.7484 16.3277 31.6724C16.2516 31.5964 16.1602 31.5376 16.0594 31.5L5.73192 27.6937C5.59063 27.6419 5.46867 27.5479 5.38251 27.4245C5.29635 27.3011 5.25015 27.1543 5.25015 27.0038C5.25015 26.8532 5.29635 26.7064 5.38251 26.583C5.46867 26.4596 5.59063 26.3656 5.73192 26.3137L16.0594 22.5C16.1602 22.4624 16.2516 22.4036 16.3277 22.3276C16.4037 22.2516 16.4625 22.1601 16.5 22.0594L20.3063 11.7319C20.3581 11.5906 20.4521 11.4686 20.5755 11.3825C20.6989 11.2963 20.8458 11.2501 20.9963 11.2501C21.1468 11.2501 21.2937 11.2963 21.4171 11.3825C21.5405 11.4686 21.6344 11.5906 21.6863 11.7319L25.5 22.0594C25.5376 22.1612 25.5967 22.2536 25.6734 22.3303C25.7502 22.4071 25.8426 22.4662 25.9444 22.5037L36.2719 26.31C36.4132 26.3619 36.5352 26.4558 36.6213 26.5792C36.7075 26.7026 36.7537 26.8495 36.7537 27C36.7537 27.1505 36.7075 27.2974 36.6213 27.4208C36.5352 27.5442 36.4132 27.6381 36.2719 27.69H36.2682ZM27.75 7.5C27.75 7.30109 27.8291 7.11032 27.9697 6.96967C28.1104 6.82902 28.3011 6.75 28.5 6.75H32.25V3C32.25 2.80109 32.3291 2.61032 32.4697 2.46967C32.6104 2.32902 32.8011 2.25 33 2.25C33.199 2.25 33.3897 2.32902 33.5304 2.46967C33.671 2.61032 33.75 2.80109 33.75 3V6.75H37.5C37.699 6.75 37.8897 6.82902 38.0304 6.96967C38.171 7.11032 38.25 7.30109 38.25 7.5C38.25 7.69891 38.171 7.88968 38.0304 8.03033C37.8897 8.17098 37.699 8.25 37.5 8.25H33.75V12C33.75 12.1989 33.671 12.3897 33.5304 12.5303C33.3897 12.671 33.199 12.75 33 12.75C32.8011 12.75 32.6104 12.671 32.4697 12.5303C32.3291 12.3897 32.25 12.1989 32.25 12V8.25H28.5C28.3011 8.25 28.1104 8.17098 27.9697 8.03033C27.8291 7.88968 27.75 7.69891 27.75 7.5ZM45.75 16.5C45.75 16.6989 45.671 16.8897 45.5304 17.0303C45.3897 17.171 45.199 17.25 45 17.25H42.75V19.5C42.75 19.6989 42.671 19.8897 42.5304 20.0303C42.3897 20.171 42.199 20.25 42 20.25C41.8011 20.25 41.6104 20.171 41.4697 20.0303C41.3291 19.8897 41.25 19.6989 41.25 19.5V17.25H39C38.8011 17.25 38.6104 17.171 38.4697 17.0303C38.3291 16.8897 38.25 16.6989 38.25 16.5C38.25 16.3011 38.3291 16.1103 38.4697 15.9697C38.6104 15.829 38.8011 15.75 39 15.75H41.25V13.5C41.25 13.3011 41.3291 13.1103 41.4697 12.9697C41.6104 12.829 41.8011 12.75 42 12.75C42.199 12.75 42.3897 12.829 42.5304 12.9697C42.671 13.1103 42.75 13.3011 42.75 13.5V15.75H45C45.199 15.75 45.3897 15.829 45.5304 15.9697C45.671 16.1103 45.75 16.3011 45.75 16.5Z" fill="#3DB7D6"/>
</svg>
